# xmcd
#
# Track frame offsets: 
#        150
#        23375
#        44365
#        63510
#        83487
#        108122
#        128785
#        149785
#        169295
#        193842
#
# Disc length: 2954 seconds
#
# Revision: 6
# Processed by: cddbd v1.5.2PL0 Copyright (c) Steve Scherf et al.
# Submitted via: ExactAudioCopy v0.95a4
#
DISCID=850b880a,990b880a
DTITLE=Lynyrd Skynyrd - Nuthin' Fancy
DYEAR=1999
DGENRE=Southern Rock
TTITLE0=Saturday Night Special
TTITLE1=Cheatin' Woman
TTITLE2=Railroad Song
TTITLE3=I'm A Country Boy
TTITLE4=On The Hunt
TTITLE5=Am I Losin'
TTITLE6=Made In The Shade
TTITLE7=Whiskey Rock-A Roller
TTITLE8=Railroad Song (Live)
TTITLE9=On The Hunt (Live)
EXTD=Year: 1999   (1999 MCA Records , Inc.]\n\n
EXTT0=
EXTT1=
EXTT2=
EXTT3=
EXTT4=
EXTT5=
EXTT6=
EXTT7=
EXTT8=
EXTT9=
PLAYORDER=
